<svg xmlns="http://www.w3.org/2000/svg" width="152" height="153"><path fill="#fff" d="M0 0h152v153H0z"/><path d="M118.791 105.319c-.222-.15-.449-.292-.677-.431l-.229-.13a15.46 15.46 0 00-.472-.265c-.09-.049-.183-.094-.276-.142-.147-.075-.293-.15-.444-.222-.1-.047-.2-.091-.3-.135-.148-.068-.3-.135-.445-.2l-.3-.125c-.153-.062-.307-.125-.462-.184l-.3-.111a21.741 21.741 0 00-.488-.172l-.287-.1a23.346 23.346 0 00-.53-.169l-.259-.079c-.2-.059-.4-.114-.6-.169l-.2-.057c-.24-.064-.483-.126-.726-.188l-.087-.021c-5.906-1.452-12.93-1.814-20.043-4.989a33.882 33.882 0 01-2.655-1.317 5.667 5.667 0 01-2.639-4.543v-9.138a29.208 29.208 0 003.982-4.245c1.852-2.471 3.6-4.622 4.642-7.891a20.217 20.217 0 00.677-2.917c.068.015.14.026.214.034 2.264.246 4.883-2.615 5.849-6.39.8-3.122.217-5.89-1.288-6.9l1.1-1.911a23.4 23.4 0 00-.433-11.233 40.574 40.574 0 00-3.414-9.575 4.364 4.364 0 00-.718-1.4 10.331 10.331 0 012.322 1.526 8.59 8.59 0 00-5.01-4.241 3.027 3.027 0 012.379-.917 22.833 22.833 0 014.179.5 16.636 16.636 0 00-2.138-1.621 10.752 10.752 0 00-4.885-.915c-.534.037-1.01.5-1.409 1.169-.68-2.264-2.561-3.907-5.511-5.545.916 2.533 1.73 3.46 1.375 4.942-8.5-4.183-23.744-1.356-28.594 2.195a15.834 15.834 0 00-4.532 5.076 22.073 22.073 0 00-5.495 8.751c-1.425 4.987-2.441 9.348-2.441 9.348a13.733 13.733 0 013.155-5.378s-2.952 4.473-2.138 8.243a9.255 9.255 0 012.6-4.554 49.426 49.426 0 00-.663 1.928c-1.232 3.827-.62 5.57-.62 5.57a55.176 55.176 0 013.406-5.459c.109 1.01.238 2.043.388 3.105a2.612 2.612 0 00-.487 0c-2.265.247-3.316 3.508-2.35 7.284s3.585 6.636 5.849 6.39c.073-.008.144-.02.214-.034a20.185 20.185 0 00.677 2.917c1.036 3.27 2.789 5.42 4.642 7.891a29.192 29.192 0 003.982 4.245v9.138a5.667 5.667 0 01-2.639 4.543c-.885.489-1.771.922-2.655 1.317-7.112 3.174-14.137 3.537-20.043 4.989l-.086.021c-.243.061-.486.124-.726.188l-.2.055a33.818 33.818 0 00-1.388.419c-.1.031-.192.063-.287.1-.165.055-.327.114-.488.172l-.3.111c-.155.059-.31.121-.462.184l-.3.125c-.15.064-.3.131-.446.2-.1.044-.2.088-.3.135-.15.072-.3.147-.446.222-.091.048-.184.093-.274.142-.16.085-.315.174-.471.265-.075.044-.154.086-.229.13-.23.139-.455.281-.677.431-5.957 4.01-5.139 28.893-5.139 28.893h95.606s.819-24.871-5.137-28.881z" fill="#0e2244"/></svg>