<svg xmlns="http://www.w3.org/2000/svg" width="48.501" height="45.5"><defs><style>.b{fill:#fff}.c{isolation:isolate}</style></defs><path d="M40.642 36.483a22.339 22.339 0 004.717-13.733A22.527 22.527 0 0022.805.25 22.527 22.527 0 00.251 22.75a22.527 22.527 0 0022.554 22.5 22.47 22.47 0 0013.129-4.229c3.728 1.4 12.311 1.115 12.317.19a25.517 25.517 0 01-7.609-4.728z" fill="#ff9d00" stroke="#47b45e" stroke-miterlimit="10" stroke-width=".5"/><path class="b" d="M9.625 19.977l-.4-.533a.627.627 0 00.264-.342.545.545 0 00-.064-.358 2.99 2.99 0 00-.26-.4l-2.631-3.475c-.074-.1-.156-.212-.244-.339s-.172-.255-.252-.385c-.084.072-.184.155-.3.248s-.2.167-.261.219l-.473-.625a5.313 5.313 0 00.615-.529 2.765 2.765 0 00.335-.41.919.919 0 00.128-.266l.4-.3a1.988 1.988 0 01.176.183c.066.074.121.135.164.18a2.236 2.236 0 01.309-.777 2.092 2.092 0 01.462-.506 1.886 1.886 0 011.06-.4 2.114 2.114 0 011.131.28 3.369 3.369 0 011.043.943 3.336 3.336 0 01.638 1.371 2.514 2.514 0 01-.092 1.354 2.42 2.42 0 01-.848 1.108 2.1 2.1 0 01-.433.256 4.279 4.279 0 01-.411.149l.6.789.242.327c.104.142.2.28.28.414a3.51 3.51 0 01.274-.238c.1-.082.18-.143.235-.185l.472.625zm.3-4.283a1.011 1.011 0 00.417-.67 1.507 1.507 0 00-.141-.792 4.231 4.231 0 00-.491-.817 3.455 3.455 0 00-.631-.647 1.585 1.585 0 00-.7-.328.82.82 0 00-.67.191 1.08 1.08 0 00-.3.388 1.061 1.061 0 00-.092.477l.382.5.377.5q.187.246.375.5l.38.5.382.5a1.283 1.283 0 00.335-.087 1.258 1.258 0 00.375-.215zm5.202-2.107a2.791 2.791 0 01-1.356.225 2.356 2.356 0 01-1.222-.474 2.724 2.724 0 01-.86-1.154 3.046 3.046 0 01-.255-1.519 2.612 2.612 0 01.486-1.289 2.475 2.475 0 011.054-.83 2.738 2.738 0 011.348-.22 2.328 2.328 0 011.208.481 2.792 2.792 0 01.863 1.173 3.244 3.244 0 01.28 1.514 2.4 2.4 0 01-.454 1.258 2.531 2.531 0 01-1.092.835zm-.244-.689a.765.765 0 00.462-.508 1.668 1.668 0 000-.76 4.33 4.33 0 00-.256-.82 5.369 5.369 0 00-.35-.69 3.341 3.341 0 00-.442-.585 1.369 1.369 0 00-.508-.346.707.707 0 00-.553.031.812.812 0 00-.472.512 1.666 1.666 0 00-.034.769 3.776 3.776 0 00.248.84 4.658 4.658 0 00.5.905 2.06 2.06 0 00.658.623.788.788 0 00.748.029zm2.844-1.115a.6.6 0 00.379-.2.54.54 0 00.09-.349 2.9 2.9 0 00-.064-.476l-.353-1.673a9.938 9.938 0 01-.144-.886c-.106.03-.231.061-.375.1s-.252.062-.324.084l-.161-.766a5.38 5.38 0 00.776-.216 2.652 2.652 0 00.483-.228.957.957 0 00.23-.185l.543-.114.743 3.517a11.406 11.406 0 01.146.9 3.577 3.577 0 01.351-.1c.132-.031.229-.054.3-.068l.163.766-2.642.556zm.146-5.548a.745.745 0 01-.615-.122.851.851 0 01-.346-.538.832.832 0 01.109-.634.745.745 0 01.493-.356.708.708 0 01.589.128.864.864 0 01.341.538.9.9 0 01-.079.627.685.685 0 01-.491.358zm2.925 5.468v-.67a.6.6 0 00.411-.116.561.561 0 00.159-.324 3.021 3.021 0 00.034-.48l-.008-1.731c0-.125 0-.263.009-.417s.016-.308.029-.459c-.109.007-.239.013-.387.017s-.259.009-.334.016v-.783a5.432 5.432 0 00.8-.054 2.7 2.7 0 00.521-.127.947.947 0 00.261-.134h.506a1.639 1.639 0 01.021.2 1.012 1.012 0 00.006.119c0 .037.016.1.037.2a2.445 2.445 0 01.472-.294 3.271 3.271 0 01.536-.208 1.744 1.744 0 01.474-.08 1.556 1.556 0 011.346.536 2.979 2.979 0 01.398 1.729v1.38c0 .1 0 .232-.008.406s-.016.342-.03.5q.175-.021.371-.027c.13 0 .231-.006.3-.006v.783l-2.7.01v-.67a.623.623 0 00.417-.114.542.542 0 00.164-.325 2.892 2.892 0 00.033-.48l-.016-1.463a2.009 2.009 0 00-.2-.993.68.68 0 00-.643-.32 1.208 1.208 0 00-.509.114 1.69 1.69 0 00-.428.27V8.3l.008 1.741c0 .1 0 .231-.009.406s-.015.342-.029.5c.111-.013.231-.022.365-.026s.236-.007.306-.007v.784zm8.088.762a2.4 2.4 0 01-.562-.2 1.247 1.247 0 01-.443-.38 1.324 1.324 0 01-.227-.657 3.27 3.27 0 01.1-1.045l.563-2.418-.683-.152.188-.834a1.145 1.145 0 00.651-.077 1.884 1.884 0 00.615-.41 2.016 2.016 0 00.427-.611l.744.166-.326 1.406 1.276.287-.173.773-1.283-.256-.565 2.47a2.306 2.306 0 00-.058.468.78.78 0 00.093.411.49.49 0 00.349.231 1.121 1.121 0 00.409-.013 1.388 1.388 0 00.642-.385l.38.561a2.632 2.632 0 01-.7.5 2.359 2.359 0 01-.629.2 1.945 1.945 0 01-.494.015c-.145-.029-.24-.039-.294-.05z"/><g class="c"><g class="c"><path class="b" d="M23.521 37.514a8.424 8.424 0 01-3.571-.654 4.928 4.928 0 01-2.062-1.64 3.5 3.5 0 01-.668-1.974 2.331 2.331 0 01.537-1.524 1.853 1.853 0 011.438-.682 1.683 1.683 0 011.133.29 1.815 1.815 0 01.58.754 2.215 2.215 0 01.175.814 2.18 2.18 0 01-.116.652 2.4 2.4 0 01-.349.682 2.083 2.083 0 001.06.857 4.044 4.044 0 001.554.3 3.4 3.4 0 002.757-1.1 4.09 4.09 0 00.93-2.73 5.505 5.505 0 00-.378-1.974 3.517 3.517 0 00-1.306-1.64 4.365 4.365 0 00-2.614-.624c-.135 0-.376.009-.725.029s-.609.039-.784.059a4.482 4.482 0 010-2.09 3.5 3.5 0 00.436.029h.406a4.7 4.7 0 002.177-.465 3.319 3.319 0 001.379-1.278 3.859 3.859 0 00.508-1.887 4.895 4.895 0 00-.247-1.785 2.488 2.488 0 00-.871-1.2 2.617 2.617 0 00-1.581-.435 2.747 2.747 0 00-1.43.378 2.156 2.156 0 00-.871.841 1.841 1.841 0 01.363.74 3.067 3.067 0 01.1.682 2.1 2.1 0 01-.189.8 1.813 1.813 0 01-.624.768 1.789 1.789 0 01-1.162.29 1.681 1.681 0 01-1.364-.638 2.326 2.326 0 01-.465-1.452 3.629 3.629 0 01.668-1.916 5.364 5.364 0 012.044-1.787 7.053 7.053 0 013.4-.741 10.224 10.224 0 013.266.494 4.711 4.711 0 012.322 1.627 4.883 4.883 0 01.857 3.019 4.234 4.234 0 01-.421 1.7 4.768 4.768 0 01-1.379 1.728 6.256 6.256 0 01-2.555 1.16 6.862 6.862 0 014.109 2 4.994 4.994 0 011.321 3.368 5.549 5.549 0 01-1 3.353 6.181 6.181 0 01-2.758 2.09 10.644 10.644 0 01-4.03.712z"/></g></g></svg>